<svg viewBox="0 0 64 64" xmlns="http://www.w3.org/2000/svg">
  <path d="M 50.91 17.22 A 24 24 0 0 1 50.91 17.22" fill="none" stroke="#1d70c9" stroke-width="9" stroke-linecap="round" opacity="0.22"/>
  <path d="M 52.78 20.00 A 24 24 0 1 1 13.61 16.57" fill="none" stroke="#1d70c9" stroke-width="9" stroke-linecap="round"/>
  <circle cx="47.4" cy="13.6" r="5.5" fill="#1d70c9"/>
  <circle cx="47.4" cy="13.6" r="2.5" fill="#fff"/>
  <g transform="translate(13.6 16.6) rotate(400) scale(1.15) translate(-12 -12)">
    <path d="M12 2 L13.2 8 L21 12.5 L21 14.5 L13.2 12.5 L13.6 18 L16 20 L16 21.5 L12 20.5 L8 21.5 L8 20 L10.4 18 L10.8 12.5 L3 14.5 L3 12.5 L10.8 8 Z" fill="#fff" stroke="#1d70c9" stroke-width="2.2" stroke-linejoin="round"/>
  </g>
</svg>